# xmcd
#
# Track frame offsets:
# 150
# 24222
# 43192
# 62289
# 81011
# 97830
# 117094
# 128891
# 144355
# 159793
# 176285
# 196073
# 214314
# 234945
# 258343
# 281569
# 293957
#
# Disc length: 4142 seconds
#
#
# Revision: 0
# Processed by: cddbd v1.5.1PL0 Copyright (c) Steve Scherf et al.
# Submitted via: FreeRIP 2.90 
#
DISCID=d8102c11
DTITLE=Mafalda Veiga - Coliseu Lisboa, 5 de Outubro
DYEAR=2004
DGENRE=Pop
TTITLE0=Tatuagens
TTITLE1=De mao em mao
TTITLE2=Ouve-se o mar
TTITLE3=Quando
TTITLE4=Uma noite para comemorar
TTITLE5=Llovizna
TTITLE6=Vestigios de ti
TTITLE7=Cumplices
TTITLE8=O menino do piano
TTITLE9=Filme
TTITLE10=O lume
TTITLE11=Restolho
TTITLE12=Fimdo dia
TTITLE13=Cada lugar teu
TTITLE14=Balada de un Soldado
TTITLE15=Velho
TTITLE16=Um pouco de Ceu
EXTD=
EXTT0=
EXTT1=
EXTT2=
EXTT3=
EXTT4=
EXTT5=
EXTT6=
EXTT7=
EXTT8=
EXTT9=
EXTT10=
EXTT11=
EXTT12=
EXTT13=
EXTT14=
EXTT15=
EXTT16=
PLAYORDER=
